<svg xmlns="http://www.w3.org/2000/svg" viewBox="0 0 332 121.97"><defs><style>.cls-1{fill:#ff5a5f;}.cls-2{fill:#ff7977;}</style></defs><g id="Livello_2" data-name="Livello 2"><g id="Layer_1" data-name="Layer 1"><g id="Logo"><path class="cls-1" d="M113.44,95.6a28.91,28.91,0,0,0-2.14-10.21c-1-2.52-2.13-5-3.25-7.43q-13.33-29.08-28-57.54c-1.37-2.65-2.72-5.31-4.17-7.92a27.79,27.79,0,0,0-5.23-7A20.42,20.42,0,0,0,57.89,0H55.72A20.33,20.33,0,0,0,42.63,5.68a28,28,0,0,0-5.06,6.83c-1.44,2.56-2.76,5.19-4.11,7.79Q23.62,39.39,14.38,58.77C10.7,66.5,7.06,74.24,3.55,82.05A37.92,37.92,0,0,0,.29,92.21,26,26,0,0,0,15.62,119.8a26.47,26.47,0,0,0,12,2.12A32.82,32.82,0,0,0,43,116.78,67.27,67.27,0,0,0,56.73,105,69.35,69.35,0,0,0,69.4,116.12a33.87,33.87,0,0,0,15.27,5.71,26.36,26.36,0,0,0,17.12-4.17,26.05,26.05,0,0,0,9.81-12.06A25.75,25.75,0,0,0,113.44,95.6ZM56.76,93.29c-1.5-1.76-2.82-3.66-4.14-5.55a68.88,68.88,0,0,1-5.88-10.29,33.93,33.93,0,0,1-2.82-9.39,16.3,16.3,0,0,1,.72-7.75,11.43,11.43,0,0,1,4.55-5.62,14.11,14.11,0,0,1,16.43,1,11.88,11.88,0,0,1,4,7.7,24.88,24.88,0,0,1-1.8,11.43C65.21,81.59,61.15,87.62,56.76,93.29Zm48.39,8.26a18.36,18.36,0,0,1-8.63,10.81,18.83,18.83,0,0,1-12.2,2.07c-5.28-.82-10-3.62-14.11-6.93a73.56,73.56,0,0,1-8.33-8A95.84,95.84,0,0,0,72.81,82.9c2.57-5.2,4.53-10.83,4.72-16.68A21.9,21.9,0,0,0,75.2,55.43a19.83,19.83,0,0,0-11-9.45,22.5,22.5,0,0,0-13.63-.42A19.72,19.72,0,0,0,36,63.32c-.47,5.47.9,10.92,3,15.94A83.87,83.87,0,0,0,51.58,99.4a69.59,69.59,0,0,1-7.31,7.26c-4.05,3.43-8.69,6.41-13.94,7.55a19.13,19.13,0,0,1-12.72-1.49,18.36,18.36,0,0,1-9.39-11.48,18.89,18.89,0,0,1,.42-11.06c1-2.93,2.35-5.72,3.62-8.54Q25.46,52.87,40,24.72c1.44-2.8,2.86-5.6,4.38-8.35a18.76,18.76,0,0,1,4.74-5.94,12.65,12.65,0,0,1,15.69.3,21.65,21.65,0,0,1,5,6.74c3,5.6,5.85,11.27,8.72,16.94Q90.72,58.7,102,83.46a58.32,58.32,0,0,1,3.12,7.81A18.8,18.8,0,0,1,105.15,101.55Z"/><path class="cls-2" d="M172.71,32.7a6.49,6.49,0,1,1-2.35,1,6.51,6.51,0,0,1,2.35-1Z"/><path class="cls-1" d="M194.34,53.7a12.72,12.72,0,0,1,7.45-3.83,17.46,17.46,0,0,1,5.58.35c0,3,0,5.9,0,8.85a14.84,14.84,0,0,0-8.8.15,10.43,10.43,0,0,0-4,2.64c-.24.21-.18.54-.2.83,0,8.25,0,16.5,0,24.74a2.84,2.84,0,0,1-.1,1c-3.18.08-6.37,0-9.55,0q0-18.86,0-37.72h8.05a1.43,1.43,0,0,1,1.44.85,8,8,0,0,1,.16,2.14Z"/><path class="cls-1" d="M263,53.73a13.78,13.78,0,0,1,9.87-3.94,16,16,0,0,1,10.71,3.52,11.63,11.63,0,0,1,4.05,6.09,32,32,0,0,1,.76,9.05v20c-3.21,0-6.42,0-9.63,0v-20c0-2.47.12-5.14-1.2-7.34a5.73,5.73,0,0,0-4.48-2.55,10.49,10.49,0,0,0-9.1,3.21,1.28,1.28,0,0,0-.43.93c0,1,.13,2.06,0,3.09-.12,1.4.07,2.8,0,4.2-.05,2.65,0,5.3,0,7.94-.19,3.5.13,7-.08,10.51h-9.59c0-12.58,0-25.16,0-37.73h7.42a1.44,1.44,0,0,1,1.51,1,10.81,10.81,0,0,1,.12,2Z"/><path class="cls-1" d="M169.19,88.44q0-18.87,0-37.73h9.56c0,12.58,0,25.15,0,37.73Z"/><path class="cls-1" d="M163.25,50.71c-2.52,0-5.05,0-7.58,0-.67,0-1.52,0-1.84.73a6.46,6.46,0,0,0-.21,2.28,12.8,12.8,0,0,0-8.1-3.86,19.48,19.48,0,0,0-13.33,3.73,18.91,18.91,0,0,0-6.59,9.26,24.62,24.62,0,0,0-1.06,5.31v2.58A19.91,19.91,0,0,0,131.41,85a19.51,19.51,0,0,0,11.35,4.44h2.15a13,13,0,0,0,8.71-4,6.57,6.57,0,0,0,.2,2.3,1.63,1.63,0,0,0,1.61.73c2.61,0,5.22,0,7.82,0Q163.25,69.58,163.25,50.71Zm-9.93,26a10.18,10.18,0,0,1-8,3.62,10.55,10.55,0,0,1-11-12.72A10,10,0,0,1,138,61.1a11.78,11.78,0,0,1,6.46-2.35,10.51,10.51,0,0,1,9.16,4c.12,4.1,0,8.21,0,12.32C153.61,75.61,153.76,76.26,153.32,76.68Z"/><path class="cls-1" d="M248.43,61.5A18.82,18.82,0,0,0,241,52.66a19.51,19.51,0,0,0-11.59-2.83,12.93,12.93,0,0,0-8.51,3.89q0-10.57,0-21.14c-3.22,0-6.43,0-9.64,0,0,18.61,0,37.23,0,55.84h8a1.45,1.45,0,0,0,1.55-1,11,11,0,0,0,.09-2.07,12.89,12.89,0,0,0,8.81,4h2a19.19,19.19,0,0,0,13.93-7A21.14,21.14,0,0,0,248.43,61.5ZM237.2,77.38a11.68,11.68,0,0,1-8,2.92,10.16,10.16,0,0,1-8-3.67,1.14,1.14,0,0,1-.3-.9c0-4.31,0-8.63,0-13a10.71,10.71,0,0,1,7.82-4.06,11.81,11.81,0,0,1,8.53,3,10.44,10.44,0,0,1,3.12,7.86A10.48,10.48,0,0,1,237.2,77.38Z"/><path class="cls-1" d="M327.71,56.84A19.12,19.12,0,0,0,310.12,50a12.71,12.71,0,0,0-7.2,3.73c0-7,0-14.08,0-21.12-3.21,0-6.41,0-9.62,0V88.43c2.53,0,5.07,0,7.59,0,.67,0,1.5,0,1.84-.72a6.74,6.74,0,0,0,.2-2.33,13,13,0,0,0,8.68,4h2.16a19.18,19.18,0,0,0,13.79-6.89A20.25,20.25,0,0,0,332,70.76V68.23A20.49,20.49,0,0,0,327.71,56.84ZM320.2,76.29c-2.54,3.28-7,4.5-11,3.86A9.92,9.92,0,0,1,303,76.32c-.16-1.59,0-3.19-.07-4.78,0-2.93-.07-5.87,0-8.79a10.46,10.46,0,0,1,6.2-3.84c4.44-.82,9.61.94,11.86,5.05A11.69,11.69,0,0,1,320.2,76.29Z"/></g></g></g></svg>